<mxfile host="65bd71144e">
    <diagram id="oekee_XDt_Akh8hp1gNP" name="Overview">
        <mxGraphModel dx="1747" dy="1010" grid="1" gridSize="10" guides="1" tooltips="1" connect="1" arrows="1" fold="1" page="1" pageScale="1" pageWidth="1169" pageHeight="827" background="none" math="0" shadow="0">
            <root>
                <mxCell id="0"/>
                <mxCell id="1" parent="0"/>
                <mxCell id="3" value="&lt;p style=&quot;line-height: 1&quot;&gt;&lt;/p&gt;&lt;h1 style=&quot;line-height: 1.5em ; margin: 0px 0px 1em ; padding: 0px&quot;&gt;The CAP theorem states that a distributed system, one made up of multiple nodes storing data, cannot simultaneously provide more than 2 out of the following 3 guarantees/characteristics: Consistency&lt;span style=&quot;box-sizing: inherit&quot;&gt;, A&lt;/span&gt;&lt;span style=&quot;box-sizing: inherit ; margin: 0px ; padding: 0px ; border: 0px ; vertical-align: baseline&quot;&gt;vailability&lt;/span&gt;,&amp;nbsp;and&lt;span style=&quot;box-sizing: inherit&quot;&gt;&amp;nbsp;P&lt;/span&gt;&lt;span style=&quot;box-sizing: inherit ; margin: 0px ; padding: 0px ; border: 0px ; vertical-align: baseline&quot;&gt;artition tolerance.&lt;/span&gt;&lt;/h1&gt;&lt;p&gt;&lt;/p&gt;" style="text;whiteSpace=wrap;html=1;strokeColor=none;align=left;" parent="1" vertex="1">
                    <mxGeometry x="25" width="1120" height="130" as="geometry"/>
                </mxCell>
                <mxCell id="4" value="&lt;span style=&quot;color: rgb(82 , 82 , 82) ; font-size: 16px ; font-weight: 400 ; letter-spacing: normal ; text-indent: 0px ; text-transform: none ; word-spacing: 0px ; background-color: rgb(255 , 255 , 255) ; display: inline ; float: none&quot;&gt;&lt;i&gt;The CAP theorem is also called Brewer’s Theorem, because it was first advanced by Professor Eric A. Brewer during a talk he gave on distributed computing in 2000. Two years later, MIT professors Seth Gilbert and Nancy Lynch published a proof of “Brewer’s Conjecture.”&lt;/i&gt;&lt;/span&gt;" style="text;whiteSpace=wrap;html=1;fontFamily=Helvetica;align=left;" parent="1" vertex="1">
                    <mxGeometry x="25" y="140" width="1115" height="50" as="geometry"/>
                </mxCell>
                <mxCell id="8" value="&lt;h3 class=&quot;ibm-h3&quot; style=&quot;box-sizing: inherit ; margin: 0px ; padding: 0px 0px 15px ; border: 0px ; vertical-align: baseline ; line-height: 1.2&quot;&gt;Consistency&lt;/h3&gt;&lt;p style=&quot;box-sizing: inherit ; margin: 0px 0px 1.5rem ; padding: 0px ; border: 0px ; vertical-align: baseline ; line-height: 1.2&quot;&gt;Consistency means that all clients see the same data at the same time, no matter which node they connect to. For this to happen, whenever data is written to one node, it must be instantly forwarded or replicated to all the other nodes in the system before the write is deemed ‘successful.’&lt;/p&gt;&lt;h3 class=&quot;ibm-h3&quot; style=&quot;box-sizing: inherit ; margin: 0px ; padding: 0px 0px 15px ; border: 0px ; vertical-align: baseline ; line-height: 1.2&quot;&gt;Availability&lt;/h3&gt;&lt;p style=&quot;box-sizing: inherit ; margin: 0px 0px 1.5rem ; padding: 0px ; border: 0px ; vertical-align: baseline ; line-height: inherit&quot;&gt;Availability means that that any client making a request for data gets a response, even if one or more nodes are down. Another way to state this—all working nodes in the distributed system return a valid response for any request, without exception.&lt;/p&gt;&lt;h3 class=&quot;ibm-h3&quot; style=&quot;box-sizing: inherit ; margin: 0px ; padding: 0px 0px 15px ; border: 0px ; vertical-align: baseline ; line-height: 1.2&quot;&gt;Partition tolerance&lt;/h3&gt;&lt;p style=&quot;box-sizing: inherit ; margin: 0px 0px 1.5rem ; padding: 0px ; border: 0px ; vertical-align: baseline ; line-height: inherit&quot;&gt;A&amp;nbsp;&lt;font color=&quot;#525252&quot;&gt;&lt;span style=&quot;background-color: rgb(255 , 255 , 255) ; box-sizing: inherit&quot;&gt;&lt;i&gt;partition&lt;/i&gt;&lt;/span&gt;&lt;/font&gt;&amp;nbsp;is a communications break within a distributed system—a lost or temporarily delayed connection between two nodes. Partition tolerance means that the cluster must continue to work despite any number of communication breakdowns between nodes in the system.&lt;/p&gt;" style="text;whiteSpace=wrap;html=1;fontSize=16;fontFamily=Helvetica;fontColor=#000000;" parent="1" vertex="1">
                    <mxGeometry x="25" y="203" width="1125" height="300" as="geometry"/>
                </mxCell>
                <mxCell id="13" value="&lt;p style=&quot;box-sizing: border-box ; border: 0px ; margin: 0px 0px 30px ; outline: 0px ; padding: 0px ; vertical-align: baseline ; overflow-wrap: break-word ; font-size: 16px&quot;&gt;&lt;font style=&quot;font-size: 16px&quot;&gt;&lt;font style=&quot;font-size: 16px&quot;&gt;In the theorem,&amp;nbsp;&lt;a href=&quot;https://codahale.com/you-cant-sacrifice-partition-tolerance/&quot; target=&quot;_blank&quot; class=&quot;external&quot; style=&quot;box-sizing: border-box ; border: 0px ; margin: 0px ; outline: 0px ; padding: 0px ; vertical-align: baseline&quot;&gt;partition tolerance is a must&lt;/a&gt;. The assumption is that the system operates on a distributed data store so the system, &lt;u&gt;by nature&lt;/u&gt;, operates with network partitions. Network failures will happen, so to offer any kind of reliable service, partition tolerance is necessary.&amp;nbsp;&lt;/font&gt;&lt;span style=&quot;line-height: 1&quot;&gt;When a network failure happens, one can choose to guarantee consistency or availability:&amp;nbsp;&lt;/span&gt;&lt;/font&gt;&lt;/p&gt;&lt;p style=&quot;box-sizing: border-box ; border: 0px ; margin: 0px 0px 30px ; outline: 0px ; padding: 0px ; vertical-align: baseline ; overflow-wrap: break-word ; font-size: 16px&quot;&gt;&lt;/p&gt;&lt;ol style=&quot;font-size: 16px&quot;&gt;&lt;li&gt;&lt;span&gt;&lt;font style=&quot;font-size: 16px&quot;&gt;High consistency comes at the cost of lower availability - value of the information returned needs to be accurate,&amp;nbsp;C &amp;gt; A&lt;/font&gt;&lt;/span&gt;&lt;/li&gt;&lt;li&gt;&lt;font style=&quot;font-size: 16px&quot;&gt;High availability comes at the cost of lower consistency - service is more important than the information,&amp;nbsp;A &amp;gt; C&lt;/font&gt;&lt;/li&gt;&lt;/ol&gt;&lt;p&gt;&lt;/p&gt;" style="text;whiteSpace=wrap;html=1;" parent="1" vertex="1">
                    <mxGeometry x="25" y="510" width="1115" height="140" as="geometry"/>
                </mxCell>
                <mxCell id="17" value="&lt;div style=&quot;text-align: center&quot;&gt;&lt;font style=&quot;font-size: 16px&quot;&gt;&lt;b&gt;A+P &lt;/b&gt;(A &amp;gt; C)&lt;/font&gt;&lt;/div&gt;&lt;div style=&quot;text-align: center&quot;&gt;&lt;font style=&quot;font-size: 16px&quot;&gt;&lt;br&gt;&lt;/font&gt;&lt;/div&gt;&lt;font style=&quot;font-size: 16px&quot;&gt;&lt;i&gt;App types: &lt;/i&gt;&lt;br&gt;&lt;/font&gt;&lt;ul&gt;&lt;li&gt;&lt;font style=&quot;font-size: 16px&quot;&gt;&lt;span style=&quot;color: rgb(29 , 29 , 29) ; background-color: rgb(255 , 255 , 255)&quot;&gt;e-commerce businesses&lt;/span&gt;&lt;br&gt;&lt;/font&gt;&lt;/li&gt;&lt;li&gt;&lt;font style=&quot;font-size: 16px&quot;&gt;social networks&lt;/font&gt;&lt;/li&gt;&lt;/ul&gt;&lt;font style=&quot;font-size: 16px&quot;&gt;&lt;i&gt;Good choice: &lt;/i&gt;&lt;br&gt;&lt;/font&gt;&lt;ul&gt;&lt;li&gt;&lt;font style=&quot;font-size: 16px&quot;&gt;Cassandra&lt;/font&gt;&lt;/li&gt;&lt;li&gt;&lt;font style=&quot;font-size: 16px&quot;&gt;AWS DynamoDB&lt;/font&gt;&lt;/li&gt;&lt;li&gt;&lt;font style=&quot;font-size: 16px&quot;&gt;Azure Cosmos DB&lt;/font&gt;&lt;/li&gt;&lt;li&gt;&lt;font style=&quot;font-size: 16px&quot;&gt;Apache CouchDB&lt;/font&gt;&lt;/li&gt;&lt;li&gt;&lt;font style=&quot;font-size: 16px&quot;&gt;RIAK&lt;/font&gt;&lt;/li&gt;&lt;/ul&gt;" style="text;whiteSpace=wrap;html=1;fontSize=16;fontFamily=Helvetica;" parent="1" vertex="1">
                    <mxGeometry x="446.5" y="1320" width="223.5" height="310" as="geometry"/>
                </mxCell>
                <mxCell id="19" value="" style="group" parent="1" vertex="1" connectable="0">
                    <mxGeometry x="359.30429000000004" y="690.0033400000001" width="413.38500000000005" height="413.39" as="geometry"/>
                </mxCell>
                <mxCell id="dlcf-DpHRGqpxR0TqX8S-25" value="" style="ellipse;fillColor=#12AAB5;opacity=60;strokeColor=none;html=1;fontColor=#FFFFFF;" parent="19" vertex="1">
                    <mxGeometry width="413.385" height="413.39" as="geometry"/>
                </mxCell>
                <mxCell id="dlcf-DpHRGqpxR0TqX8S-27" value="&lt;font color=&quot;#000000&quot;&gt;&lt;b&gt;Consistency&lt;/b&gt;&lt;/font&gt;" style="text;fontSize=24;align=center;verticalAlign=middle;html=1;fontColor=#FFFFFF;" parent="19" vertex="1">
                    <mxGeometry x="128.305345" y="130.37480000000005" width="157.08630000000002" height="57.874599999999994" as="geometry"/>
                </mxCell>
                <mxCell id="5" value="&lt;span style=&quot;text-indent: 0px; display: inline; float: none; font-size: 16px;&quot;&gt;&lt;font style=&quot;font-size: 16px;&quot;&gt;Every read request receives the most recent write or an error when consistency can’t be guaranteed&lt;/font&gt;&lt;/span&gt;" style="text;whiteSpace=wrap;html=1;fontFamily=Helvetica;align=center;fontSize=16;" parent="19" vertex="1">
                    <mxGeometry x="103.50570999999997" y="188.24666000000002" width="206.37" height="94.77" as="geometry"/>
                </mxCell>
                <mxCell id="20" value="" style="group" parent="1" vertex="1" connectable="0">
                    <mxGeometry x="171" y="944.71" width="413.385" height="413.3899999999999" as="geometry"/>
                </mxCell>
                <mxCell id="dlcf-DpHRGqpxR0TqX8S-24" value="" style="ellipse;fillColor=#F08705;opacity=60;strokeColor=none;html=1;fontColor=#FFFFFF;" parent="20" vertex="1">
                    <mxGeometry width="413.385" height="413.39" as="geometry"/>
                </mxCell>
                <mxCell id="dlcf-DpHRGqpxR0TqX8S-29" value="&lt;b&gt;Availability&lt;/b&gt;" style="text;fontSize=24;align=center;verticalAlign=middle;html=1;fontColor=#000000;" parent="20" vertex="1">
                    <mxGeometry x="124.84226999999998" y="140.55259999999998" width="157.0863" height="57.874599999999994" as="geometry"/>
                </mxCell>
                <mxCell id="6" value="&lt;div style=&quot;text-align: center&quot;&gt;&lt;span&gt;Every request receives a non-error response, even when nodes are down or unavailable&lt;/span&gt;&lt;/div&gt;" style="text;whiteSpace=wrap;html=1;fontSize=16;fontFamily=Helvetica;fontColor=#000000;" parent="20" vertex="1">
                    <mxGeometry x="102.68" y="206.70000000000005" width="206.37" height="87.31" as="geometry"/>
                </mxCell>
                <mxCell id="22" value="&lt;div style=&quot;text-align: center&quot;&gt;&lt;b&gt;&lt;font style=&quot;font-size: 16px&quot;&gt;C+A&lt;/font&gt;&lt;/b&gt;&lt;/div&gt;&lt;div style=&quot;text-align: center&quot;&gt;&lt;font style=&quot;font-size: 16px&quot;&gt;(P is compensated by nodes replication)&lt;/font&gt;&lt;/div&gt;&lt;font style=&quot;font-size: 16px&quot;&gt;&lt;i&gt;App types: &lt;/i&gt;&lt;br&gt;&lt;/font&gt;&lt;ul&gt;&lt;li&gt;&lt;font style=&quot;font-size: 16px&quot;&gt;&lt;span style=&quot;color: rgb(29 , 29 , 29) ; background-color: rgb(255 , 255 , 255)&quot;&gt;e-commerce businesses&lt;/span&gt;&lt;br&gt;&lt;/font&gt;&lt;/li&gt;&lt;li&gt;&lt;font style=&quot;font-size: 16px&quot;&gt;payment service&lt;/font&gt;&lt;/li&gt;&lt;/ul&gt;&lt;font style=&quot;font-size: 16px&quot;&gt;&lt;i&gt;Good choices are &lt;b&gt;RDBMS&lt;/b&gt;:&lt;/i&gt;&lt;br&gt;&lt;/font&gt;&lt;ul&gt;&lt;li&gt;&lt;font style=&quot;font-size: 16px&quot;&gt;PostgreSQL&lt;/font&gt;&lt;/li&gt;&lt;li&gt;&lt;font style=&quot;font-size: 16px&quot;&gt;MySQL&lt;/font&gt;&lt;/li&gt;&lt;li&gt;&lt;font style=&quot;font-size: 16px&quot;&gt;SQL Server&lt;/font&gt;&lt;/li&gt;&lt;li&gt;&lt;font style=&quot;font-size: 16px&quot;&gt;MariaDB&lt;/font&gt;&lt;/li&gt;&lt;/ul&gt;" style="text;whiteSpace=wrap;html=1;fontSize=16;fontFamily=Helvetica;" parent="1" vertex="1">
                    <mxGeometry x="60" y="704.71" width="239" height="325.29" as="geometry"/>
                </mxCell>
                <mxCell id="dlcf-DpHRGqpxR0TqX8S-26" value="" style="ellipse;fillColor=#e85642;opacity=60;strokeColor=none;html=1;fontColor=#FFFFFF;aspect=fixed;" parent="1" vertex="1">
                    <mxGeometry x="530" y="950" width="413.385" height="413.29" as="geometry"/>
                </mxCell>
                <mxCell id="dlcf-DpHRGqpxR0TqX8S-28" value="&lt;b&gt;Partition tolerance&lt;/b&gt;" style="text;fontSize=24;align=center;verticalAlign=middle;html=1;fontColor=#000000;" parent="1" vertex="1">
                    <mxGeometry x="623.8" y="1060" width="257.19" height="70" as="geometry"/>
                </mxCell>
                <mxCell id="7" value="&lt;span style=&quot;text-indent: 0px; display: inline; float: none;&quot;&gt;The system continues to operate despite the loss of an arbitrary number of messages between nodes&lt;/span&gt;" style="text;whiteSpace=wrap;html=1;fontSize=16;fontFamily=Helvetica;fontColor=#000000;align=center;" parent="1" vertex="1">
                    <mxGeometry x="615" y="1140" width="274.8" height="90" as="geometry"/>
                </mxCell>
                <mxCell id="15" value="&lt;div style=&quot;text-align: center&quot;&gt;&lt;b&gt;C+P &lt;/b&gt;(C &amp;gt; A)&lt;/div&gt;&lt;div style=&quot;text-align: center&quot;&gt;&lt;br&gt;&lt;/div&gt;&lt;i&gt;App types: &lt;/i&gt;&lt;br&gt;&lt;ul&gt;&lt;li&gt;banking/finance&lt;/li&gt;&lt;li&gt;text messages&lt;/li&gt;&lt;/ul&gt;&lt;i&gt;Good choice: &lt;/i&gt;&lt;br&gt;&lt;ul&gt;&lt;li&gt;MondoDB&lt;/li&gt;&lt;li&gt;Redis&lt;/li&gt;&lt;li&gt;HBase&lt;/li&gt;&lt;li&gt;Google Big Table&lt;/li&gt;&lt;/ul&gt;" style="text;whiteSpace=wrap;html=1;fontSize=16;fontFamily=Helvetica;" parent="1" vertex="1">
                    <mxGeometry x="780" y="710" width="170" height="290" as="geometry"/>
                </mxCell>
                <mxCell id="23" value="&lt;ul style=&quot;box-sizing: inherit ; border: 0px ; vertical-align: baseline ; padding: 0px ; margin: 1.5rem 0px ; list-style: none ; line-height: inherit ; position: relative ; text-indent: 0px ; font-size: 12px&quot;&gt;&lt;li style=&quot;box-sizing: inherit ; margin: 0px 0px 1.5rem ; padding: 0px ; border: 0px ; vertical-align: baseline ; position: relative&quot;&gt;&lt;i&gt;&lt;span style=&quot;box-sizing: inherit&quot;&gt;&lt;b&gt;CP NoSQL database&lt;/b&gt;:&lt;/span&gt;&lt;span style=&quot;box-sizing: inherit ; margin: 0px ; padding: 0px ; border: 0px ; vertical-align: baseline&quot;&gt;&amp;nbsp;&lt;/span&gt;delivers consistency and partition tolerance at the expense of availability. When a partition occurs between any two nodes, the system has to shut down the non-consistent node (i.e., make it unavailable) until the partition is resolved.&lt;/i&gt;&lt;br&gt;&lt;/li&gt;&lt;/ul&gt;" style="text;whiteSpace=wrap;html=1;fontSize=16;fontFamily=Helvetica;verticalAlign=middle;" parent="1" vertex="1">
                    <mxGeometry x="959.84" y="811.4" width="190.16" height="133.31" as="geometry"/>
                </mxCell>
                <mxCell id="24" value="&lt;ul style=&quot;box-sizing: inherit ; border: 0px ; vertical-align: baseline ; padding: 0px ; margin: 1.5rem 0px ; list-style: none ; line-height: inherit ; position: relative ; text-indent: 0px ; font-size: 12px&quot;&gt;&lt;li style=&quot;box-sizing: inherit ; margin: 0px 0px 1.5rem ; padding-top: 0px ; padding-bottom: 0px ; border: 0px ; vertical-align: baseline ; font-size: inherit ; font-family: &amp;#34;ibm plex sans&amp;#34; , , &amp;#34;helvetica neue&amp;#34; , &amp;#34;arial&amp;#34; , sans-serif ; position: relative&quot;&gt;&lt;i&gt;&lt;span style=&quot;box-sizing: inherit ; margin: 0px ; padding: 0px ; border: 0px ; vertical-align: baseline ; font-size: inherit ; font-weight: 600&quot;&gt;AP NoSQL database:&amp;nbsp;&lt;/span&gt;delivers availability and partition tolerance at the expense of consistency. When a partition occurs, all nodes remain available but those at the wrong end of a partition might return an older version of data than others. (When the partition is resolved, the AP databases typically resync the nodes to repair all inconsistencies in the system.)&lt;/i&gt;&lt;/li&gt;&lt;/ul&gt;" style="text;whiteSpace=wrap;html=1;fontSize=16;fontFamily=Helvetica;verticalAlign=middle;" parent="1" vertex="1">
                    <mxGeometry x="685.5" y="1460" width="190.16" height="170" as="geometry"/>
                </mxCell>
            </root>
        </mxGraphModel>
    </diagram>
</mxfile>
